<svg xmlns="http://www.w3.org/2000/svg" xml:space="preserve" width="50" height="50" viewBox="0 0 13.229 13.229"><path d="M3.116 3.39h7.701v6.474H3.116z" style="fill:#fff;fill-opacity:1;stroke-width:.499999"/><path d="M6.434 13.227a6.592 6.592 0 0 1-4.792-2.25A6.584 6.584 0 0 1 .026 6.01a6.57 6.57 0 0 1 1.94-4.1A6.6 6.6 0 0 1 7.254.03a6.588 6.588 0 0 1 4.001 1.872 6.605 6.605 0 0 1 .839 8.42 6.644 6.644 0 0 1-2.754 2.32 6.62 6.62 0 0 1-2.906.585zM4.418 9.604v-.026l-.031-.02a.437.437 0 0 1-.11-.111.426.426 0 0 1-.041-.102l-.009-.031V6.608l-.002-2.705.01-.035a.344.344 0 0 1 .15-.2l.03-.018-.002-.024v-.024L3.964 3.6 3.518 3.6v.05l.03.02c.061.04.118.111.14.178.024.068.023-.149.022 2.78L3.709 9.31l-.01.033a.374.374 0 0 1-.152.216l-.03.02v.05h.901zm4.491.021c.694-.041 1.248-.26 1.679-.66l.033-.03-.013-.011c-.007-.006-.015-.01-.017-.009a1.19 1.19 0 0 0-.063.045 2.565 2.565 0 0 1-.663.358c-.239.085-.51.138-.805.155a4.428 4.428 0 0 1-.45-.006 2.711 2.711 0 0 1-.935-.268 2.905 2.905 0 0 1-1.408-1.54 3.208 3.208 0 0 1-.203-1.489c.058-.63.279-1.182.652-1.63a3.39 3.39 0 0 1 .294-.297c.37-.31.788-.489 1.229-.526.062-.006.23-.006.3 0 .46.035.847.2 1.131.484.072.071.115.123.166.2l.034.051h.014L9.9 4.45l.001-.305.001-.304h-.015a.12.12 0 0 0-.05.018.271.271 0 0 1-.138.036c-.048 0-.05-.002-.237-.07a4.059 4.059 0 0 0-.455-.147 2.788 2.788 0 0 0-.38-.068 3.96 3.96 0 0 0-.427-.007 2.75 2.75 0 0 0-1.831.815c-.602.614-.895 1.49-.81 2.42.065.711.333 1.35.772 1.838.053.06.176.182.233.23.51.44 1.151.682 1.913.72.064.004.372.003.433-.001z" style="fill:#5098bc;fill-opacity:1;stroke-width:.0474768"/></svg>